<svg xmlns="http://www.w3.org/2000/svg" xmlns:xlink="http://www.w3.org/1999/xlink" width="50px" height="50px" viewBox="0 0 50 50" version="1.1">
<title id="dart-logo-title">Dart Logo Square</title>
<g id="surface1">
<path style=" stroke:none;fill-rule:nonzero;fill:rgb(0%,76.862746%,70.19608%);fill-opacity:1;" d="M 13.378906 13.46875 L 10.179688 10.269531 L 10.179688 33.332031 L 10.226562 34.414062 C 10.226562 34.910156 10.316406 35.496094 10.496094 36.082031 L 35.8125 45 L 42.117188 42.207031 Z M 13.378906 13.46875 "/>
<path style=" stroke:none;fill-rule:nonzero;fill:rgb(13.333334%,82.745099%,77.254903%);fill-opacity:1;" d="M 10.496094 36.082031 Z M 42.117188 42.207031 L 35.8125 45 L 10.539062 36.082031 C 11.035156 37.929688 12.070312 40 13.242188 41.171875 L 21.488281 49.371094 L 39.863281 49.414062 Z M 42.117188 42.207031 "/>
<path style=" stroke:none;fill-rule:nonzero;fill:rgb(0%,45.882353%,78.823531%);fill-opacity:1;" d="M 10.269531 10.269531 L 0.449219 25.136719 C -0.359375 25.992188 0.046875 27.792969 1.351562 29.144531 L 7.027344 34.863281 L 10.585938 36.125 C 10.449219 35.539062 10.316406 34.953125 10.316406 34.460938 L 10.269531 33.378906 Z M 10.269531 10.269531 "/>
<path style=" stroke:none;fill-rule:nonzero;fill:rgb(0%,45.882353%,78.823531%);fill-opacity:1;" d="M 35.992188 10.539062 C 35.40625 10.40625 34.820312 10.316406 34.324219 10.269531 L 33.199219 10.226562 L 10.179688 10.226562 L 42.117188 42.164062 L 44.910156 35.855469 Z M 35.992188 10.539062 "/>
<path style=" stroke:none;fill-rule:nonzero;fill:rgb(0%,65.882355%,88.235295%);fill-opacity:1;" d="M 35.945312 10.539062 C 35.992188 10.539062 35.992188 10.539062 35.945312 10.539062 C 35.992188 10.539062 35.992188 10.539062 35.945312 10.539062 Z M 41.082031 13.242188 C 39.910156 12.070312 37.882812 10.992188 35.992188 10.539062 L 44.910156 35.855469 L 42.117188 42.164062 L 48.964844 39.953125 L 48.964844 21.171875 Z M 41.082031 13.242188 "/>
<path style=" stroke:none;fill-rule:nonzero;fill:rgb(0%,76.862746%,70.19608%);fill-opacity:1;" d="M 34.730469 7.027344 L 29.007812 1.351562 C 27.703125 0.046875 25.902344 -0.359375 25 0.449219 L 10.136719 10.269531 L 33.152344 10.269531 L 34.277344 10.316406 C 34.773438 10.316406 35.359375 10.40625 35.945312 10.585938 Z M 34.730469 7.027344 "/>
</g>
</svg>
