<?xml version="1.0" encoding="UTF-8"?>
<svg xmlns="http://www.w3.org/2000/svg" xmlns:xlink="http://www.w3.org/1999/xlink" width="50px" height="50px" viewBox="0 0 50 50" version="1.1">
<g id="surface1">
<path style=" stroke:none;fill-rule:nonzero;fill:rgb(36.470589%,78.823531%,88.235295%);fill-opacity:1;" d="M 7.929688 22.464844 C 7.851562 22.464844 7.832031 22.421875 7.871094 22.355469 L 8.285156 21.753906 C 8.324219 21.6875 8.421875 21.644531 8.5 21.644531 L 15.5 21.644531 C 15.578125 21.644531 15.597656 21.710938 15.558594 21.777344 L 15.226562 22.355469 C 15.1875 22.421875 15.089844 22.488281 15.03125 22.488281 Z M 7.929688 22.464844 "/>
<path style=" stroke:none;fill-rule:nonzero;fill:rgb(36.470589%,78.823531%,88.235295%);fill-opacity:1;" d="M 4.96875 24.511719 C 4.890625 24.511719 4.871094 24.464844 4.910156 24.398438 L 5.324219 23.800781 C 5.363281 23.734375 5.460938 23.6875 5.539062 23.6875 L 14.480469 23.6875 C 14.558594 23.6875 14.597656 23.753906 14.578125 23.820312 L 14.421875 24.355469 C 14.402344 24.445312 14.324219 24.488281 14.246094 24.488281 Z M 4.96875 24.511719 "/>
<path style=" stroke:none;fill-rule:nonzero;fill:rgb(36.470589%,78.823531%,88.235295%);fill-opacity:1;" d="M 9.714844 26.554688 C 9.636719 26.554688 9.617188 26.488281 9.65625 26.421875 L 9.929688 25.867188 C 9.96875 25.800781 10.050781 25.734375 10.128906 25.734375 L 14.050781 25.734375 C 14.128906 25.734375 14.167969 25.800781 14.167969 25.890625 L 14.128906 26.421875 C 14.128906 26.511719 14.050781 26.578125 13.988281 26.578125 Z M 9.714844 26.554688 "/>
<path style=" stroke:none;fill-rule:nonzero;fill:rgb(36.470589%,78.823531%,88.235295%);fill-opacity:1;" d="M 30.070312 22.066406 C 28.832031 22.421875 27.988281 22.6875 26.773438 23.042969 C 26.480469 23.132812 26.460938 23.15625 26.207031 22.820312 C 25.910156 22.445312 25.695312 22.199219 25.285156 21.976562 C 24.050781 21.289062 22.851562 21.488281 21.734375 22.3125 C 20.402344 23.289062 19.714844 24.734375 19.734375 26.535156 C 19.753906 28.3125 20.832031 29.777344 22.382812 30.023438 C 23.714844 30.222656 24.832031 29.6875 25.714844 28.554688 C 25.890625 28.3125 26.050781 28.042969 26.246094 27.734375 C 25.539062 27.734375 24.65625 27.734375 22.460938 27.734375 C 22.050781 27.734375 21.949219 27.445312 22.089844 27.066406 C 22.34375 26.378906 22.8125 25.222656 23.089844 24.644531 C 23.148438 24.511719 23.285156 24.289062 23.578125 24.289062 C 24.578125 24.289062 28.265625 24.289062 30.714844 24.289062 C 30.675781 24.890625 30.675781 25.488281 30.597656 26.089844 C 30.382812 27.6875 29.851562 29.15625 28.988281 30.445312 C 27.578125 32.554688 25.734375 33.867188 23.402344 34.222656 C 21.480469 34.511719 19.695312 34.089844 18.128906 32.753906 C 16.675781 31.511719 15.851562 29.867188 15.636719 27.820312 C 15.382812 25.398438 16.011719 23.222656 17.304688 21.3125 C 18.695312 19.246094 20.539062 17.933594 22.792969 17.464844 C 24.636719 17.089844 26.402344 17.332031 27.988281 18.554688 C 29.03125 19.332031 29.773438 20.398438 30.265625 21.6875 C 30.382812 21.890625 30.304688 22 30.070312 22.066406 Z M 30.070312 22.066406 "/>
<path style=" stroke:none;fill-rule:nonzero;fill:rgb(36.470589%,78.823531%,88.235295%);fill-opacity:1;" d="M 36.558594 34.355469 C 34.773438 34.3125 33.148438 33.734375 31.773438 32.398438 C 30.617188 31.265625 29.890625 29.820312 29.65625 28.109375 C 29.304688 25.601562 29.910156 23.378906 31.246094 21.398438 C 32.675781 19.265625 34.402344 18.15625 36.734375 17.6875 C 38.734375 17.289062 40.617188 17.511719 42.324219 18.820312 C 43.871094 20.023438 44.832031 21.644531 45.089844 23.777344 C 45.421875 26.777344 44.65625 29.222656 42.832031 31.3125 C 41.539062 32.800781 39.949219 33.734375 38.128906 34.15625 C 37.597656 34.265625 37.070312 34.289062 36.558594 34.355469 Z M 41.226562 25.378906 C 41.207031 25.089844 41.207031 24.867188 41.167969 24.644531 C 40.8125 22.445312 39.03125 21.199219 37.167969 21.6875 C 35.34375 22.15625 34.167969 23.464844 33.734375 25.554688 C 33.382812 27.289062 34.128906 29.042969 35.539062 29.753906 C 36.617188 30.289062 37.695312 30.222656 38.734375 29.621094 C 40.285156 28.710938 41.128906 27.289062 41.226562 25.378906 Z M 41.226562 25.378906 "/>
</g>
</svg>
