<?xml version="1.0" encoding="UTF-8"?>
<svg xmlns="http://www.w3.org/2000/svg" xmlns:xlink="http://www.w3.org/1999/xlink" width="50px" height="50px" viewBox="0 0 50 50" version="1.1">
<g id="surface1">
<path style=" stroke:none;fill-rule:nonzero;fill:rgb(0%,67.450982%,84.313726%);fill-opacity:1;" d="M 28.566406 16.921875 L 28.675781 16.996094 C 29.96875 17.847656 30.894531 19.015625 31.5 20.429688 C 31.648438 20.648438 31.550781 20.769531 31.257812 20.84375 L 30.761719 20.96875 C 29.644531 21.257812 28.757812 21.5 27.65625 21.789062 L 27.027344 21.953125 C 26.800781 22.007812 26.738281 21.984375 26.496094 21.710938 L 26.460938 21.671875 C 26.117188 21.28125 25.859375 21.019531 25.40625 20.789062 L 25.316406 20.746094 C 23.785156 19.992188 22.300781 20.210938 20.910156 21.109375 C 19.257812 22.183594 18.402344 23.765625 18.429688 25.734375 C 18.453125 27.683594 19.792969 29.289062 21.714844 29.558594 C 23.371094 29.777344 24.757812 29.191406 25.855469 27.953125 C 26.074219 27.683594 26.265625 27.390625 26.511719 27.050781 L 21.8125 27.050781 C 21.300781 27.050781 21.179688 26.734375 21.351562 26.320312 L 21.433594 26.121094 C 21.746094 25.394531 22.230469 24.347656 22.546875 23.75 L 22.617188 23.621094 C 22.699219 23.476562 22.871094 23.277344 23.199219 23.277344 L 31.035156 23.277344 C 31.386719 22.164062 31.957031 21.109375 32.71875 20.113281 C 34.496094 17.777344 36.636719 16.558594 39.535156 16.046875 C 42.019531 15.609375 44.355469 15.851562 46.472656 17.289062 C 48.394531 18.601562 49.589844 20.378906 49.90625 22.71875 C 50.320312 26.003906 49.371094 28.683594 47.105469 30.96875 C 45.5 32.601562 43.527344 33.625 41.261719 34.085938 C 40.605469 34.207031 39.949219 34.230469 39.316406 34.304688 C 37.101562 34.257812 35.078125 33.625 33.375 32.164062 C 32.175781 31.128906 31.351562 29.855469 30.941406 28.371094 C 30.65625 28.945312 30.316406 29.496094 29.917969 30.019531 C 28.167969 32.332031 25.878906 33.769531 22.980469 34.160156 C 20.59375 34.476562 18.378906 34.011719 16.433594 32.550781 C 14.632812 31.1875 13.609375 29.386719 13.339844 27.148438 C 13.023438 24.496094 13.804688 22.109375 15.410156 20.015625 C 17.136719 17.75 19.425781 16.316406 22.226562 15.804688 C 24.472656 15.398438 26.625 15.648438 28.566406 16.921875 Z M 40.148438 20.410156 L 40.070312 20.429688 C 37.804688 20.941406 36.347656 22.375 35.808594 24.664062 C 35.371094 26.5625 36.296875 28.488281 38.050781 29.265625 C 39.390625 29.851562 40.726562 29.777344 42.019531 29.121094 C 43.941406 28.121094 44.988281 26.5625 45.109375 24.46875 C 45.085938 24.152344 45.085938 23.910156 45.035156 23.667969 C 44.601562 21.285156 42.433594 19.925781 40.148438 20.410156 Z M 11.367188 24.859375 C 11.464844 24.859375 11.515625 24.933594 11.515625 25.03125 L 11.464844 25.613281 C 11.464844 25.710938 11.367188 25.785156 11.296875 25.785156 L 5.988281 25.761719 C 5.890625 25.761719 5.867188 25.6875 5.914062 25.613281 L 6.257812 25.007812 C 6.304688 24.933594 6.402344 24.859375 6.5 24.859375 Z M 11.90625 22.621094 C 12 22.621094 12.050781 22.691406 12.027344 22.765625 L 11.832031 23.351562 C 11.808594 23.449219 11.710938 23.496094 11.613281 23.496094 L 0.0976562 23.519531 C 0 23.519531 -0.0234375 23.472656 0.0234375 23.398438 L 0.535156 22.742188 C 0.585938 22.667969 0.707031 22.621094 0.804688 22.621094 Z M 13.171875 20.378906 C 13.269531 20.378906 13.292969 20.453125 13.242188 20.527344 L 12.828125 21.160156 C 12.78125 21.234375 12.660156 21.304688 12.585938 21.304688 L 3.773438 21.28125 C 3.675781 21.28125 3.652344 21.234375 3.699219 21.160156 L 4.210938 20.503906 C 4.261719 20.429688 4.382812 20.378906 4.480469 20.378906 Z M 13.171875 20.378906 "/>
</g>
</svg>
